<svg width="44" height="22" viewBox="0 0 44 22" fill="none" xmlns="http://www.w3.org/2000/svg">
<path d="M14.4688 12.3051L20.943 1.01512C21.0676 0.797886 21.2988 0.663902 21.5493 0.663902H33.7655C34.3026 0.663902 34.639 1.24453 34.3718 1.71045L31.5226 6.67897C31.2554 7.14489 31.5918 7.72551 32.1289 7.72551H42.3167C42.8538 7.72551 43.1902 8.30614 42.923 8.77206L35.9513 20.9297C35.8267 21.147 35.5954 21.2809 35.345 21.2809H23.4424C22.9053 21.2809 22.569 20.7003 22.8362 20.2344L26.783 13.3517C27.0502 12.8858 26.7138 12.3051 26.1767 12.3051H14.4688L9.52313 20.9297C9.39856 21.147 9.16728 21.2809 8.91686 21.2809H0.699919C0.162831 21.2809 -0.173532 20.7003 0.0936448 20.2344L4.43921 12.6563C4.56378 12.4391 4.79506 12.3051 5.04548 12.3051H14.4688Z" fill="white"/>
</svg>
